<svg xmlns="http://www.w3.org/2000/svg" xmlns:xlink="http://www.w3.org/1999/xlink" version="1.1" x="0px" y="0px" viewBox="0 0 100 125" style="enable-background:new 0 0 100 100;" xml:space="preserve"><style type="text/css">
	.st0{fill:#010101;}
</style><g><path class="st0" d="M36.1,58.5c0.3,0,0.7,0,1-0.1c0.4-5,3.2-9.4,7.2-12.1c-1.3-3.2-4.5-5.5-8.1-5.5c-4.9,0-8.8,3.9-8.8,8.8   C27.3,54.5,31.3,58.5,36.1,58.5z"/><path class="st0" d="M36.2,39.2c0.8,0,1.4-0.6,1.4-1.4v-7.1c0-0.8-0.6-1.4-1.4-1.4s-1.4,0.6-1.4,1.4v7.1   C34.7,38.6,35.4,39.2,36.2,39.2z"/><path class="st0" d="M25.7,49.7c0-0.8-0.6-1.4-1.4-1.4h-7.1c-0.8,0-1.4,0.6-1.4,1.4c0,0.8,0.6,1.4,1.4,1.4h7.1   C25.1,51.1,25.7,50.5,25.7,49.7z"/><path class="st0" d="M28.8,57c-0.6-0.6-1.5-0.6-2,0l-5,5c-0.6,0.6-0.6,1.5,0,2c0.3,0.3,0.7,0.4,1,0.4c0.4,0,0.7-0.1,1-0.4l5-5   C29.3,58.5,29.3,57.6,28.8,57z"/><path class="st0" d="M44.5,42.7c0.4,0,0.7-0.1,1-0.4l5-5c0.6-0.6,0.6-1.5,0-2c-0.6-0.6-1.5-0.6-2,0l-5,5c-0.6,0.6-0.6,1.5,0,2   C43.8,42.6,44.1,42.7,44.5,42.7z"/><path class="st0" d="M26.7,42.3c0.3,0.3,0.7,0.4,1,0.4c0.4,0,0.7-0.1,1-0.4c0.6-0.6,0.6-1.5,0-2l-5-5c-0.6-0.6-1.5-0.6-2,0   c-0.6,0.6-0.6,1.5,0,2L26.7,42.3z"/><path class="st0" d="M73.5,54.9c-1.6,0-3.1,0.4-4.6,1.1l-0.8,0.3l-0.2-0.8c-1.9-6.3-7.8-10.7-14.4-10.7c-3.3,0-6.3,1-8.8,2.9   c-3.3,2.3-5.6,6.1-6.1,10.3c-0.1,0.6-0.1,1.2-0.1,1.8c0,0.1,0,0.3,0,0.4l0.1,1l-0.8,0c-0.1,0-0.1,0-0.2,0h-0.1c-0.1,0-0.1,0-0.2,0   c-0.9,0-1.7,0.1-2.5,0.3c-4.3,1-7.6,4.6-8.1,9.1h56.3c0.9-1.6,1.3-3.3,1.3-5C84.3,59.7,79.4,54.9,73.5,54.9z"/></g><text x="0" y="115" fill="#000000" font-size="5px" font-weight="bold" font-family="'Helvetica Neue', Helvetica, Arial-Unicode, Arial, Sans-serif">Created by Robert Almeida</text><text x="0" y="120" fill="#000000" font-size="5px" font-weight="bold" font-family="'Helvetica Neue', Helvetica, Arial-Unicode, Arial, Sans-serif">from the Noun Project</text></svg>